<?xml version="1.0" encoding="utf-8" ?><svg xmlns="http://www.w3.org/2000/svg" xmlns:xlink="http://www.w3.org/1999/xlink" width="1024" height="1024" viewBox="0 0 1024 1024"><path d="M582.628 295.971C609.74 259.862 646.427 224.819 684.538 200.316C685.22 201.338 685.867 202.383 686.479 203.448C694.075 216.39 700.12 231.415 705.298 245.469C719.292 283.446 725.977 325.762 720.918 366.1C719.291 379.067 715.966 392.644 712.707 405.265C727.636 420.447 744.545 439.111 754.995 457.523C742.044 452.248 735.661 449.631 721.913 446.786C728.232 454.229 734.117 463.801 739.44 472.005C756.376 498.107 768.67 524.548 778.038 554.215C771.111 550.147 764.259 544.888 757.201 540.752C749.341 536.146 742.07 533.082 733.743 529.572C757.196 565.567 766.539 608.952 759.982 651.41C754.568 645.334 749.559 638.443 744.141 632.251C739.388 626.819 734.758 622.489 729.527 617.543C728.981 655.036 712.708 682.824 692.071 712.214C692.423 693.064 687.978 674.072 680.677 656.476C680.657 659.243 680.421 661.915 680.025 664.651C672.842 714.272 641.935 750.154 604.039 779.518C617.516 752.829 629.017 723.062 624.743 692.623C620.221 708.01 616.149 718.735 608.681 733.114C593.11 762.234 571.165 785.177 544.052 803.675C550.863 789.778 554.027 783.678 558.304 768.857C542.636 785.593 527.703 803.203 512.182 820.15C497.008 804.904 480.619 784.699 465.777 768.38C468.822 781.637 474.244 792.152 480.457 803.993C450.486 786.711 422.617 751.48 408.883 719.975C404.822 710.661 402.623 701.942 398.991 692.628C395.7 725.953 406.404 750.427 419.758 779.106C388.096 757.431 360.904 723.678 348.9 687.013C345.527 676.71 344.738 667.506 342.639 657.092C336.404 672.596 330.824 695.688 332.498 712.727C309.667 683.785 296.496 655.852 294.384 618.262C283.477 626.64 271.289 640.976 263.786 652.358C260.446 601.406 263.023 574.553 289.814 530.28C270.674 536.568 261.904 543.539 246.048 554.311C257.116 513.836 277.829 480.411 302.162 446.762C288.658 449.594 281.761 452.442 268.987 457.394C280.312 438.451 295.688 421.218 311.057 405.442C309.034 397.35 307.045 389.423 305.445 381.246C295.712 331.495 304.164 279.192 323.328 232.694C326.889 224.055 334.171 208.047 339.379 200.338C344.665 203.198 354.132 210.3 359.051 213.983C390.091 237.226 417.347 265.785 441.657 295.944C481.655 287.996 515.561 285.386 556.201 291.609C564.655 292.904 574.434 293.923 582.628 295.971ZM614.282 614.03C618.595 602.96 639.509 582.028 649.139 573.733C646.792 574.62 644.408 575.408 641.995 576.096C623.955 581.222 610.009 579.058 593.628 569.959C583.19 585.89 579.018 599.395 578.292 618.581C573.305 607.313 568.446 595.99 563.713 584.613C559.393 576.606 554.685 565.401 550.695 556.868C549.232 569.139 550.921 598.818 551.46 611.593C552.025 624.974 551.837 641.702 552.71 654.626C555.393 664.269 557.998 674.867 554.371 684.657C548.514 700.465 531.505 710.71 517.234 717.646C536.752 724.161 559.011 732.774 575.806 715.665C594.807 696.31 588.626 666.051 585.669 641.863C585.372 639.431 584.608 636.904 584.681 634.562C586.07 635.202 595.549 655.096 597.067 658.334C600.262 642.7 606.083 627.72 614.282 614.03ZM460.31 584.106C455.81 595.662 449.687 607.845 445.634 618.701C445.027 600.155 440.233 585.392 430.934 569.438C409.755 581.059 398.553 580.773 375.756 574.236C388.029 585.953 401.807 599.116 409.958 614.155C419.533 630.69 422.442 640.727 427.26 658.811C431.053 649.438 436.614 640.111 439.84 631.999C436.902 657.782 427.912 689.696 445.049 711.829C460.748 732.104 485.785 726.159 506.246 717.484C492.077 710.071 474.819 701.367 469.405 684.815C466.21 675.048 468.833 663.845 471.096 654.117C470.895 646.565 471.692 638.274 471.799 630.742C472.134 607.311 474.925 579.38 473.205 556.327C468.106 565.498 464.964 575.106 460.31 584.106ZM568.331 544.286C582.288 543.989 592.858 548.758 607.193 546.392C622.189 543.917 630.437 538.059 641.358 528.046C649.458 515.654 650.959 504.833 650.197 490.043C643.734 490.402 637.951 491.504 631.636 492.92C625.959 517.188 609.018 535.217 582.451 528.815C581.411 528.56 580.378 528.277 579.353 527.967C575.745 532.752 570.908 539.011 568.331 544.286ZM559.016 735.242C531.001 742.56 511.079 745.984 481.831 739.4C476.442 738.186 470.163 736.869 464.937 735.14C471.782 746.554 485.211 754.612 497.903 757.784C513.126 761.57 529.232 759.07 542.591 750.848C545.638 748.947 548.492 746.755 551.115 744.303C554.665 741.099 556.426 739.428 559.016 735.242ZM382.706 527.588C395.531 540.209 407.55 546.964 426.292 547.057C438.089 547.116 442.602 543.356 455.951 545.157C454.039 540.519 448.355 532.38 445.42 527.977C445.006 528.086 444.592 528.193 444.177 528.297C416.269 535.306 398.185 519.112 391.91 492.804C385.251 491.505 380.216 490.769 373.548 490.022C373.201 505.921 373.66 514.019 382.706 527.588ZM450.041 448.083C456.721 460.881 458.434 468.563 458.008 482.951C449.4 468.073 442.319 458.608 428.286 448.572C430.762 454.817 432.792 460.027 434.345 466.642C422.218 457.339 406.868 446.475 390.789 447.56C377.204 451.01 363.936 460.016 354.689 470.342C385.646 468.238 418.385 473.178 442.512 494.128C447.971 498.804 452.876 504.09 457.134 509.881C459.088 512.511 462.761 517.996 464.778 520.182C471.66 513.488 480.192 502.51 479.329 492.282C476.977 474.515 464.376 458.244 450.041 448.083ZM545.38 499.125C548.505 508.392 552.474 513.448 559.462 520.2C588.526 477.069 619.472 469.487 669.125 470.486C659.336 461.028 644.241 447.27 629.84 447.484C628.834 447.502 627.829 447.542 626.825 447.603C610.148 451.005 603.206 456.21 589.893 466.716C591.564 459.317 592.74 455.865 595.889 448.962C582.904 457.296 572.466 469.046 565.721 482.923C565.205 468.105 567.623 461.139 573.581 448.076C559.489 459.104 541.185 479.575 545.38 499.125Z"/><path fill="#424242" d="M677.83 224.757L678.508 224.086C680.826 225.305 688.742 245.979 690.079 249.805C705.878 295.014 712.957 344.668 698.672 391.268L678.611 374.471C689.853 344.475 689.692 333.732 689.467 302.739C692.016 305.756 694.227 309.043 696.06 312.541C695.348 291.503 689.546 261.226 677.383 243.542C647.535 268.971 622.699 297.548 610.47 335.62C607.745 335.355 596.523 334.104 594.557 335.686L594.683 336.346C627.803 354.365 656.109 374.961 683.955 400.484C690.655 406.625 699.661 414.657 705.744 421.4C707.954 423.366 711.569 427.514 713.486 429.89C702.536 428.421 696.164 427.997 684.83 428.524C702.661 447.52 734.964 488.663 742.433 513.788C716.01 504.626 700.831 499.519 676.928 483.493C685.565 483.526 692.946 484.227 701.522 485.216C684.632 463.247 665.025 440.273 635.601 435.936C625.785 434.49 617.69 436.447 608.485 439.61C611.221 432.272 612.903 429.376 617.797 423.182C605.175 425.991 600.173 427.54 588.372 433.602C585.009 431.92 583.562 431.924 579.848 433.281C553.271 442.995 525.396 475.317 534.417 505.194C536.835 513.201 546.232 524.261 552.657 529.467C550.568 538.92 548.812 547.295 550.695 556.868C549.232 569.139 550.921 598.818 551.46 611.593C552.025 624.974 551.837 641.702 552.71 654.626C546.231 649.183 538.042 645.426 529.447 644.201C514.68 642.096 495.488 641.984 481.495 647.659C479.051 648.65 473.31 652.566 471.096 654.117C470.895 646.565 471.692 638.274 471.799 630.742C472.134 607.311 474.925 579.38 473.205 556.327C474.944 545.873 473.85 540.077 471.38 529.917C478.783 522.658 488.139 513.42 490.666 502.982C493.67 490.579 489.321 476.18 482.717 465.559C473.568 450.845 459.371 438.661 442.823 433.085C439.115 431.702 434.413 431.793 430.758 430.509C422.638 427.655 415.019 425.4 406.661 423.433C411.348 429.627 413.005 433.088 416.273 440.095C406.407 436.031 395.594 434.832 385.077 436.635C358.913 441.22 337.082 464.806 322.307 485.68C328.933 484.073 341.46 483.517 348.369 483.486C340.546 487.536 333.108 492.936 324.994 496.93C310.777 503.928 295.678 509.048 280.794 514.449C297.087 480.864 313.615 454.532 339.842 428.003C328.537 427.801 320.739 428.787 309.719 430.287C311.525 428.236 316.683 422.748 318.682 421.279C355.535 383.948 385.31 360.981 430.812 335.349L430.48 334.562C426.324 334.09 418.38 336.025 413.995 336.942C401.759 298.724 376.625 268.459 345.943 243.354C335.381 259.656 328.437 292.978 327.914 312.253C330.523 308.248 332.514 303.936 335.821 300.389C331.75 325.654 336.52 350.7 345.594 374.305C338.638 379.816 331.903 385.6 325.405 391.643C317.626 369.471 316.425 338.478 318.901 315.365C321.784 288.461 328.365 262.54 338.907 237.628C340.327 234.272 342.647 226.89 345.184 224.801C346.736 224.858 346.03 224.609 347.293 225.761C353.467 229.193 362.46 236.67 367.994 241.288C395.362 264.123 421.093 292.44 438.207 323.913C443.156 331.028 447.785 339.783 452.047 347.417C451.4 333.414 451.037 324.887 448.207 310.947C497.835 302.41 526.361 301.759 575.792 311.357C573.338 325.988 572.398 332.56 572.487 347.527C575.906 340.999 581.447 329.807 585.715 324.407C598.478 295.284 636.38 256.765 661.065 237.003C665.625 233.353 672.751 227.542 677.83 224.757Z"/><path fill="#959494" d="M594.683 336.346C627.803 354.365 656.109 374.961 683.955 400.484C690.655 406.625 699.661 414.657 705.744 421.4C703.867 421.085 697.118 415.153 695.068 413.487C688.199 407.845 681.273 402.274 674.29 396.775C658.583 384.451 642.6 372.484 626.352 360.884C621.283 357.224 596.244 340.334 594.683 336.346Z"/><path fill="#959494" d="M430.812 335.349C428.309 341.619 352.504 391.824 340.883 403.558C337.918 406.551 323.456 418.349 319.705 421.12L318.682 421.279C355.535 383.948 385.31 360.981 430.812 335.349Z"/><path fill="#959494" d="M677.83 224.757C677.111 228.02 658.393 243.02 654.395 246.841C637.145 263.187 620.999 280.659 606.062 299.143C602.101 304.011 589.826 322.204 585.715 324.407C598.478 295.284 636.38 256.765 661.065 237.003C665.625 233.353 672.751 227.542 677.83 224.757Z"/><path fill="#959494" d="M347.293 225.761C353.467 229.193 362.46 236.67 367.994 241.288C395.362 264.123 421.093 292.44 438.207 323.913L437.757 324.136C435.881 323.026 420.421 302.408 417.766 299.138C402.354 280.115 385.686 262.146 367.873 245.35C363.654 241.365 348.502 229.127 347.293 225.761Z"/><path fill="#F7C25D" d="M570.948 382.433C570.909 385.314 567.46 393.769 566.496 397.391C564.693 404.164 564.47 407.03 564.173 413.929C576.338 409.368 583.029 406.366 596.11 405.282C592.323 407.705 587.824 409.871 583.849 412.377C577.075 416.65 571.824 420.847 565.741 425.892C557.423 432.951 551.892 440.995 545.287 446.69C547.205 422.344 552.916 399.981 570.948 382.433Z"/><path fill="#F7C25D" d="M452.534 382.782C453.123 382.964 453.488 383.103 453.961 383.535C471.397 399.483 476.864 424.769 478.707 446.923C471.81 438.901 467.293 434.103 459.56 426.902C448.362 417.274 440.669 412.329 428.1 405.059C442.851 407.444 446.435 408.405 460.045 414.077C459.786 400.83 457.231 395.011 452.534 382.782Z"/><path d="M523.877 437.011L524.258 437.448C520.834 446.429 519.002 451.053 517.687 460.559C521.158 458.323 523.942 456.437 527.724 454.707C520.738 468.076 517.205 476.36 511.993 490.399C510.027 485.565 508.33 480.785 506.287 475.876C503.577 468.848 499.914 461.417 496.678 454.599C500.59 456.474 503.071 458.073 506.757 460.43C505.44 451.592 503.017 445.864 500.28 437.361C504.99 440.733 508.31 444.486 512.165 448.743C515.81 444.363 519.592 440.735 523.877 437.011Z"/><path fill="#424242" d="M283.617 602.341C284.457 596.04 285.669 589.794 287.246 583.636C294.969 553.35 310.424 525.801 337.905 509.477C333.379 526.119 333.873 537.405 339.89 553.25C344.198 539.421 349.974 532.656 360.8 523.655C374.349 545.655 384.287 555.186 410.891 556.688C408.912 555.488 406.965 554.239 405.05 552.94C397.391 547.732 384.523 537.216 382.706 527.588C395.531 540.209 407.55 546.964 426.292 547.057C438.089 547.116 442.602 543.356 455.951 545.157C458.58 551.735 458.278 552.266 459.217 558.77C460.027 564.373 458.488 580.49 460.31 584.106C455.81 595.662 449.687 607.845 445.634 618.701C445.027 600.155 440.233 585.392 430.934 569.438C409.755 581.059 398.553 580.773 375.756 574.236C388.029 585.953 401.807 599.116 409.958 614.155C390.588 633.066 385.18 663.309 382.889 688.912C379.586 684.853 376.487 680.633 373.603 676.266C357.355 651.484 351.705 621.228 357.917 592.253C338.087 603.315 328.976 618.031 322.379 639.118C321.045 634.03 320.54 627.052 320.429 621.789C319.959 599.466 326.172 582.211 337.04 563.177C311.38 573.156 301.101 580.893 283.617 602.341Z"/><path fill="#424242" d="M686.245 509.565C713.211 526.293 730.033 553.782 737.249 584.301C738.594 590.058 739.6 595.889 740.264 601.764C724.853 582.544 710.361 571.899 687.418 563.247C702.759 591.724 705.043 606.425 701.698 638.328C693.618 617.351 686.29 603.941 666.051 592.062C674.588 629.556 663.227 659.273 641.052 689.219C640.32 665.553 636.364 648.641 624.054 627.76C621.749 623.85 617.386 617.282 614.282 614.03C618.595 602.96 639.509 582.028 649.139 573.733C646.792 574.62 644.408 575.408 641.995 576.096C623.955 581.222 610.009 579.058 593.628 569.959C583.19 585.89 579.018 599.395 578.292 618.581C573.305 607.313 568.446 595.99 563.713 584.613C564.761 581.785 564.554 578.572 564.609 575.553C564.822 563.814 562.937 555.032 568.331 544.286C582.288 543.989 592.858 548.758 607.193 546.392C622.189 543.917 630.437 538.059 641.358 528.046C639.267 539.379 622.173 551.229 612.938 556.573C638.445 556.101 651.2 545.865 663.178 523.685C675.023 532.751 679.003 539.544 684.13 553.498C689.896 537.636 690.21 526.087 686.245 509.565Z"/><path fill="#424242" d="M362.068 297.668C377.449 302.686 389.232 323.799 394.208 338.042C383.823 345.008 373.517 352.091 363.291 359.289C352.856 347.529 350.882 332.582 349.933 317.652C354.258 320.916 358.526 324.256 362.735 327.669L362.942 327.022C364.951 320.942 365.838 319.335 371.501 316.565C368.415 309.182 365.964 304.508 362.068 297.668Z"/><path fill="#424242" d="M660.023 298.45L660.406 298.846C660.333 300.476 653.5 314.171 652.275 316.785C658.438 320.186 659.544 322.587 661.512 328.876C665.526 324.715 669.396 321.483 674.011 318.05C673.301 336.021 671.297 343.197 661.566 358.741L661.325 358.857C660.934 358.837 660.544 358.817 660.154 358.797C651.121 352.466 638.741 343.985 629.814 338.208C635.754 319.028 643.097 308.88 660.023 298.45Z"/><path fill="#F7C25D" d="M613.979 485.944C614.699 486.455 614.826 486.371 615.061 487.216C618.044 497.977 610.463 511.534 600.136 515.214C592.8 517.828 587.322 516.043 580.936 512.983C580.077 512.39 580.343 512.577 579.696 511.694C580.182 508.535 585.329 504.131 587.791 501.708C599.161 510.601 604.34 503.334 603.43 491.179C606.89 489.399 610.483 487.673 613.979 485.944Z"/><path fill="#F7C25D" d="M409.349 485.628C413.311 487.322 416.752 489.167 420.552 491.168C419.825 503.947 424.997 510.968 436.486 501.614C438.997 504.148 443.592 508.59 444.113 512.017C422.942 524.724 406.716 507.757 409.349 485.628Z"/><path fill="#F7C25D" d="M508.508 659.213C521.554 658.299 536.824 658.471 543.887 671.155C532.552 667.288 528.708 666.889 516.98 666.106C502.234 665.676 493.812 666.179 480.192 671.42C487.488 659.321 495.884 659.915 508.508 659.213Z"/><path fill="#FEFCFE" d="M530.317 685.453C535.061 685.428 536.965 687.188 540.31 690.164C538.751 691.505 536.975 692.837 535.346 694.115C526.911 697.532 523.843 692.227 530.317 685.453Z"/><path fill="#FEFCFE" d="M490.443 685.4C497.051 686.341 501.328 692.088 492.631 695.693C489.053 694.252 487.071 692.61 484.253 690.165C486.479 688.033 487.934 687.104 490.443 685.4Z"/></svg>